<svg xmlns="http://www.w3.org/2000/svg" viewBox="0 0 50 50" fill="currentColor"><style>svg{color:#000}@media(prefers-color-scheme:dark){svg{color:#fff}}</style><path d="M20 27.7c-.5.3-1.1.4-1.9.4s-1.3-.1-1.9-.4c-.6-.2-1-.6-1.3-1.1s-.4-1.1-.4-1.8.2-1.3.4-1.9c.3-.6.7-1 1.3-1.3s1.1-.5 1.8-.5 1.1.1 1.6.4c.5.2.8.6 1.1 1 .2.4.4.9.4 1.3s0 .8-.3 1.2-.4.7-.8.9l-.6.3h-.2V26l.1-.7.6-2.9h-.8v.7l-.7-.6-.7-.2c-.2 0-.7.1-1 .3l-.9 1c-.2.5-.3.9-.3 1.4s0 .7.2 1c.1.3.3.5.6.7s.5.2.7.2.5 0 .7-.2l.6-.5v.4l.3.3h.5c.6 0 1.2-.3 1.7-.9.6-.6.9-1.4.9-2.2s-.1-1.1-.4-1.6c-.3-.6-.8-1-1.3-1.3-.6-.3-1.2-.4-1.9-.4s-1.7.2-2.3.6a4.5 4.5 0 0 0-1.9 3.8c0 .7.1 1.2.4 1.7l.8 1.1c.3.3.8.6 1.4.7.5.2 1.1.2 1.7.2s1.3 0 1.7-.3.9-.4 1.2-.7.6-.6.7-.9H21c-.3.4-.6.7-1.1.9ZM18.5 25l-.4.7-.5.4-.5.1-.6-.3c-.2-.2-.3-.5-.3-.9l.1-.8c0-.3.2-.5.4-.7.2-.2.3-.4.5-.4l.5-.1c.3 0 .5.1.7.3.2.2.3.5.3.9 0 .3 0 .6-.2.9Zm17 2.4h-11c-.3 0-.6.3-.6.6s.3.6.6.6h11c.3 0 .6-.3.6-.6s-.3-.6-.6-.6Z"/><path d="M37.4 17.3H12.9c-1.3 0-2.3 1.1-2.4 2.4v10.7c0 1.3 1.1 2.4 2.4 2.4h24.5c1.3 0 2.4-1.1 2.4-2.4V19.7c0-1.3-1-2.4-2.3-2.4Zm1.2 13c0 .7-.5 1.2-1.2 1.2H12.9c-.7 0-1.2-.5-1.2-1.2V19.6c0-.7.5-1.2 1.2-1.2h24.5c.7 0 1.2.5 1.2 1.2v10.7Z"/><circle cx="25" cy="25" r="24.2" fill="none" stroke="currentColor" stroke-miterlimit="10" stroke-width="1.5"/><path d="M35.5 21.3h-11c-.3 0-.6.3-.6.6s.3.6.6.6h11c.3 0 .6-.3.6-.6s-.3-.6-.6-.6Zm0 3.1h-11c-.3 0-.6.3-.6.6s.3.6.6.6h11c.3 0 .6-.3.6-.6s-.3-.6-.6-.6Z"/></svg>