<svg xmlns="http://www.w3.org/2000/svg" viewBox="0 0 883.27 604.13"><defs><style>.cls-1{fill:#a0616a}.cls-1,.cls-3,.cls-4,.cls-5,.cls-6,.cls-7{stroke-width:0}.cls-3{fill:#ffb8b8}.cls-4{fill:#2f2e41}.cls-5{fill:#e6e6e6}.cls-6{fill:#535461}.cls-7{fill:#93bcd8}</style></defs><path d="M758.3 252.21c12.17 12.77 25.76 14.81 40.75 6.11-6.29-10.08-7.79-21.05-6.11-32.6h-29.2c1.29 10.15.95 19.6-5.43 26.49Zm48.22 334.14 15.62-8.15 6.79-86.25v-45.51l-36-.68 10.19 45.51 3.4 95.08zm-45.28 0-15.62-8.15-6.79-86.25v-45.51l35.99-.68-10.19 45.51-3.39 95.08z" class="cls-3"/><path d="m737.24 455.95 38.03-3.4 6.11-34.64 7.47 33.96 41.43-2.72c.91-16.5-1.39-33.49-6.79-50.94l-91.01-2.04 4.75 59.76Z" class="cls-4"/><path d="m697.71 325.87-45.75-35.23c-.48-.37-1-.67-1.55-.89l-6.65-2.71c-5.34-2.17-15.51-9.4-10.55-16.84 4-6 19.31 4.75 21.19 8.73a6.58 6.58 0 0 0 2.79 2.95l9.3 5.09c.22.12.46.23.7.33l35.4 14.35c1.99.81 4.25.6 6.06-.55l6.42-4.07a6.65 6.65 0 0 1 10.09 4.33l2.12 10.7a6.65 6.65 0 0 1-4.16 7.51l-18.98 7.23c-2.16.82-4.6.47-6.43-.95Z" class="cls-3"/><path d="M706.21 300.2c12.67-3.4 11.34 14.3 21 23l19-15-11.01-53.28a19.8 19.8 0 0 0-13.05 11.95L706.2 300.2Z" class="cls-7"/><path d="M729.77 399.58h95.76c-15.5-41.76-13.99-84.72-.79-128.49a3.27 3.27 0 0 0-1.6-3.84l-27.49-14.37c-10.79 7.02-22.38 4.86-34.63-4.75l-29.88 8.15c8.13 48.86 8.37 96.71-1.36 143.3Z" class="cls-7"/><path d="m753.72 602.3-39.91 1.69a7.04 7.04 0 0 1-1.98-13.88l6.77-1.66 26.6-15.42c3.94 4.08 9.37 7.53 16 10.47l.08 10.84a7.91 7.91 0 0 1-7.57 7.96Z" class="cls-4"/><path fill="#3f3d56" stroke-width="0" d="M882.88 604.13H.32v-2.18h882.95l-.39 2.18z"/><path d="m813.71 601.69 39.91 1.69a7.03 7.03 0 0 0 1.98-13.88l-6.77-1.66-26.6-15.42c-3.94 4.08-9.37 7.53-16 10.47l-.08 10.84a7.91 7.91 0 0 0 7.57 7.96Z" class="cls-4"/><circle cx="775.28" cy="216.21" r="21.73" class="cls-3" transform="rotate(-2 773.28 215.79)"/><path d="m809.23 392.79-7.18 13.96a9.82 9.82 0 0 0 5.28 13.68 9.82 9.82 0 0 0 13.16-7.78l3-20.55 10.87-51.62-.68-25.81h-21.73c7.41 19.2 3.73 47.51-2.72 78.1Z" class="cls-3"/><path d="M808.55 317.4h29.2l-4.24-32.03a26.23 26.23 0 0 0-14.78-20.27l-10.19 52.29Z" class="cls-7"/><path d="M798.38 204.24a20.86 20.86 0 0 0-4.57-16.41c-3.71-4.39-9.92-7.98-20.23-6.28-22.5 3.7-28.98 22.42-26.78 27.13 2.21 4.71 8.96 15.63 8.96 15.63s-4.96-10.81.42-13.01c5.38-2.2 26.21-10.87 33.48-6.96a13.02 13.02 0 0 1 7.17 10.98l1.56-11.07Z" class="cls-4"/><path d="m426.41 113.79-8.74 4.43a197.58 197.58 0 0 0-39.44-53.18C299.45-10.69 173.74-8.22 98 70.57c-75.74 78.78-73.26 204.49 5.52 280.23a198.23 198.23 0 0 0 50.9 35.53l-4.27 8.82C46.81 344.96 3.72 220.52 53.89 117.19 104.07 13.86 228.51-29.24 331.84 20.94a207.96 207.96 0 0 1 94.56 92.86Z" class="cls-5"/><path d="M130.79 296.08A69.93 69.93 0 0 0 231.61 393l12.04-12.52-100.82-96.92-12.04 12.52Z" class="cls-5"/><path d="M136.07 276.45a15.6 15.6 0 0 0 .43 22.04l92.47 88.89a15.59 15.59 0 0 0 21.61-22.47l-92.47-88.89a15.6 15.6 0 0 0-22.04.43Z" class="cls-6"/><path d="m413.41 203.89 12.04-12.52a69.93 69.93 0 0 0-100.82-96.92l-12.04 12.52 100.82 96.92Z" class="cls-5"/><path d="M305.22 100.5a15.6 15.6 0 0 0 .43 22.04l92.47 88.9a15.59 15.59 0 0 0 21.61-22.47l-92.47-88.9a15.6 15.6 0 0 0-22.04.43Zm39.01 205.44v-7.22s31.52-17.73 57.12 0v6.57l-57.12.66Zm286.93 0v-7.22s31.52-17.73 57.12 0v6.57l-57.12.66Z" class="cls-6"/><path d="M438.78 305.28h-30.86s-7.88-9.19-34.14-8.54c-26.26.66-31.52 8.54-31.52 8.54s-25.94 17.4-31.85 39.07c0 0-31.85 95.54-32.5 170.39-.66 74.85 28.23 85.36 43.34 87.33 15.1 1.97 42.02-.66 68.29-66.97l11.16-38.74s1.97-22.98 25.61-8.54c23.64 14.45 44.65-7.88 44.65-7.88h88.64s29.55 18.38 56.47 3.94c0 0 10.51-13.79 20.36 32.83 0 0 30.2 95.86 76.82 86.01 46.62-9.85 41.37-89.95 41.37-89.95s-6.24-122.46-31.85-165.79c0 0-24.62-44.98-41.04-46.95 0 0-35.46-6.57-49.25-.66l-7.88 6.57-185.82-.66Z" class="cls-5"/><path d="M367.21 312.5a57.12 57.12 0 1 1 0 114.24 57.12 57.12 0 0 1 0-114.24Z" class="cls-6"/><circle cx="665.31" cy="369.63" r="57.12" class="cls-6"/><path d="m377.16 356.89-7.62 6.74a3.55 3.55 0 0 1-4.67 0l-7.63-6.74a3.57 3.57 0 0 1-1.2-2.63v-18.54a3.53 3.53 0 0 1 3.53-3.53h15.27a3.52 3.52 0 0 1 3.53 3.52v18.53a3.5 3.5 0 0 1-1.22 2.64Zm0 25.47-7.62-6.73a3.55 3.55 0 0 0-4.67 0l-7.63 6.74a3.57 3.57 0 0 0-1.2 2.63v18.52a3.52 3.52 0 0 0 3.52 3.53h15.28a3.52 3.52 0 0 0 3.53-3.52v-18.52a3.5 3.5 0 0 0-1.22-2.64Zm-22.68-2.77 6.74-7.63a3.55 3.55 0 0 0 0-4.67l-6.74-7.63a3.57 3.57 0 0 0-2.63-1.2h-18.52a3.53 3.53 0 0 0-3.53 3.53v15.27a3.52 3.52 0 0 0 3.52 3.53h18.53c1-.01 1.96-.45 2.62-1.21Zm25.47 0-6.72-7.64a3.52 3.52 0 0 1 0-4.67l6.74-7.63a3.51 3.51 0 0 1 2.63-1.19h18.52a3.52 3.52 0 0 1 3.53 3.52v15.28a3.52 3.52 0 0 1-3.52 3.53h-18.52a3.54 3.54 0 0 1-2.65-1.2Z" class="cls-5"/><path d="M444.69 390.64a41.37 41.37 0 1 1 0 82.73 41.37 41.37 0 0 1 0-82.73Zm143.14 0a41.37 41.37 0 1 1 0 82.73 41.37 41.37 0 0 1 0-82.73Z" class="cls-6"/><path d="M444.69 404.43a27.58 27.58 0 1 1 0 55.17 27.58 27.58 0 0 1 0-55.17Z" class="cls-5"/><path d="M444.69 451.05a19.04 19.04 0 1 1 19.04-19.04 19.06 19.06 0 0 1-19.04 19.04Zm0-36.77a17.73 17.73 0 1 0 17.73 17.73c0-9.79-7.94-17.72-17.73-17.73Z" class="cls-6"/><path d="M587.83 404.43a27.58 27.58 0 1 1 0 55.17 27.58 27.58 0 0 1 0-55.17Z" class="cls-5"/><path d="M587.83 451.05a19.04 19.04 0 1 1 0-38.08 19.04 19.04 0 0 1 0 38.08Zm0-36.77a17.73 17.73 0 1 0 17.73 17.73 17.75 17.75 0 0 0-17.73-17.73Zm-70.26 10.5a11.82 11.82 0 1 1 0 23.63 11.82 11.82 0 0 1 0-23.63Zm-18.06-30.21a2.58 2.58 0 1 1 0 5.16 2.58 2.58 0 0 1 0-5.16Zm9.66 0a2.59 2.59 0 0 1 0 5.16 2.59 2.59 0 0 1 0-5.16Zm-1.28 12.25a2.59 2.59 0 0 1 0 5.16 2.59 2.59 0 0 1 0-5.16Zm9.02.23a2.63 2.63 0 1 1 0 5.27 2.63 2.63 0 0 1 0-5.27Zm9.02-.23a2.58 2.58 0 1 1 0 5.16 2.58 2.58 0 0 1 0-5.16Zm-21.91-5.8a2.59 2.59 0 0 1 0 5.16 2.59 2.59 0 0 1 0-5.16Zm8.3.12a2.63 2.63 0 1 1 0 5.27 2.63 2.63 0 0 1 0-5.27Zm8.53 0a2.63 2.63 0 0 1 0 5.26 2.62 2.62 0 0 1 0-5.26Zm8.95-.12a2.58 2.58 0 1 1 0 5.16 2.58 2.58 0 0 1 0-5.16Z" class="cls-6"/><circle cx="516.91" cy="397.2" r="2.63" class="cls-6"/><path d="M526.11 394.58a2.62 2.62 0 1 1 0 5.25 2.62 2.62 0 0 1 0-5.25Zm7.55-.01a2.58 2.58 0 1 1 0 5.16 2.58 2.58 0 0 1 0-5.16Zm-114.25-83.69a4.58 4.58 0 0 0-4.58 4.58v13.79a4.58 4.58 0 0 0 4.58 4.58h3.28a4.58 4.58 0 0 0 4.58-4.58v-13.79a4.58 4.58 0 0 0-4.58-4.58h-3.28Zm191.73 0a4.58 4.58 0 0 0-4.58 4.58v13.79a4.58 4.58 0 0 0 4.58 4.58h3.28a4.58 4.58 0 0 0 4.58-4.58v-13.79a4.58 4.58 0 0 0-4.58-4.58h-3.28Z" class="cls-6"/><path d="M665.96 319.07a15.77 15.77 0 1 1-.01 31.53 15.77 15.77 0 0 1 .01-31.53Z" class="cls-5"/><circle cx="632.48" cy="368.31" r="15.76" class="cls-5"/><path d="M700.76 350.59a15.77 15.77 0 1 1-.01 31.53 15.77 15.77 0 0 1 .01-31.53Zm-32.17 34.8a15.76 15.76 0 1 1 0 31.52 15.76 15.76 0 0 1 0-31.52Z" class="cls-5"/><path d="M449.12 301.68a13.3 13.3 0 0 0-13.28 13.28v58.77a13.3 13.3 0 0 0 13.28 13.28h134.93a13.3 13.3 0 0 0 13.28-13.28v-58.77a13.3 13.3 0 0 0-13.28-13.28H449.12Zm227.55 40.37H655.3l10.32-17.69 11.05 17.69Zm-19.08-1.31h16.71l-8.64-13.83-8.07 13.83Zm-16.25 35.45h-17.73v-15.76h17.73v15.76Zm-16.41-1.31h15.1v-13.13h-15.1v13.13Zm75.83 1.31a9.85 9.85 0 1 1 0-19.7 9.85 9.85 0 0 1 0 19.7Zm0-18.38a8.54 8.54 0 1 0 8.54 8.54 8.55 8.55 0 0 0-8.54-8.54Zm-40.17 36.43.92-.93 14.76 14.79-.93.92z" class="cls-6"/><path d="m660.57 407.67 15.1-14.45.9.94-15.1 14.45z" class="cls-6"/><path d="M139.57 151.65c-35.85 9.88-75.11 17.32-89.17 5.78 7.7-12.82 12.14-25.46 12.52-37.87a21.7 21.7 0 0 1 6.41-15.1 24.41 24.41 0 0 1 20.33-6.61l9.3 1.31.93.15a21.77 21.77 0 0 1 17.5 18.34c1.96 13.45 8.55 25.1 22.18 34Z" class="cls-4"/><path d="m174.15 279.29 13.94 2.87a7.32 7.32 0 0 1 5.24 10.07 7.32 7.32 0 0 1-10.56 3.33l-21.32-13.11-36.21-85.13 18.76-5.43 30.15 87.38Zm-99.28 111.7-10.56 3.07-7.98-16.5 8.12-4.23 10.42 17.66zm-5.36 70.68-12.95-3.42L58.58 436l11.15.69-.22 24.98z" class="cls-1"/><path d="m70.86 375.57-13.71 9.03-52.74-59.66a11.76 11.76 0 0 1 2.78-17.87l65.71-39.26 10.06 28.91-34.21 32.11 22.12 46.76ZM82.4 406.8l-.1.13c-.88 5.13-2.42 9.81-5.85 13.2a10.22 10.22 0 0 1-19.51-5.28l2.56-22.91c6.15-1.41 10.84-4.91 13.21-11.71l5.97 4.07a15.7 15.7 0 0 1 3.73 22.5Z" class="cls-4"/><path d="M88.91 104.52a21.1 21.1 0 1 1 0 42.22 21.1 21.1 0 0 1 0-42.22Z" class="cls-1"/><path d="m107.19 159.37-33.28 27.56-2.59-11.34 5.81-8.85c1.61-8.69.57-18.27-2.2-28.43l21.71.02c.94 8.21 4.13 15.37 10.55 21.04Z" class="cls-1"/><path d="m116.55 231.66-44.92 13.68-3.49-15.98c-8.42-11.3-12.08-21.62-6.57-30.04l-2.77-12.67c7.95-6.26 14.2-12.66 17.64-19.31l27.64-10.8 20.32 1.25 6 20.11-13.83 53.76Z" class="cls-7"/><path d="M148.47 194.15a46.25 46.25 0 0 0-26.82 8.22l2.74-44.57a16.17 16.17 0 0 1 12.74 9.7l11.34 26.65Z" class="cls-7"/><path d="m70.72 442.01-14.26-3.51 2.1-121.15 19.15-20.97-4.29-26.58-2.77-29.78 46.77-11.6c15.81 28.7 25.36 54.8 11.42 71.1L70.73 442Zm-3.28 40.91-.19.07c-4.14 4.81-8.69 8.73-14.41 10.11a12.46 12.46 0 0 1-17.06-17.78l17.07-22.31c7.31 2.39 14.4 1.68 21.15-3.93l3.68 8a19.14 19.14 0 0 1-10.25 25.83Z" class="cls-4"/><path d="M15.35 293.86 2.83 304.57a8.12 8.12 0 0 0 1.94 13.57 8.12 8.12 0 0 0 10.5-3.56l9.05-16.88 41.5-75.74-15.61-2.93-34.87 74.83Z" class="cls-1"/><path d="M68.33 224.09c-8.11-2.45-15.7-3.89-21.59-1.99 1.23-15.28 3.78-28.92 12.05-35.44l11.76 1.38-2.22 36.05Z" class="cls-7"/><path d="m112.47 120.74-45.14-2.78.56-9.03c15.76-10.63 30.81-9.7 45.14 2.78l-.56 9.03Z" class="cls-4"/><path d="M668.32 147.76c.7-4.87 1.08-10.28 1.03-16.36-.09-13.1-2-31.96-2-31.96s-.69-4.31-.92-5.29c-2.65-13.02-7.11-19.77-13.49-22.67-4.68-1.81-7.35-2.43-9.13-2.6-1.97-2.19-6.36-6.58-11.95-9.13-5.5-2.43-11.18-2.69-14.02-2.71-2.06-2.35-6.55-6.75-13.1-7.03h-.36l-.15-.35a39.37 39.37 0 0 0-18.65-4.36c-.42 0-.8.08-1.18.22a3.53 3.53 0 0 0-1.18-.22 40.53 40.53 0 0 0-14.71 2.59c-1.7.65-3.03 1.31-3.94 1.77l-.15.36h-.36c-6.53.27-11.03 4.68-13.1 7.03-2.84.03-8.53.28-14.02 2.71-5.59 2.55-9.97 6.94-11.95 9.13-1.79.17-4.45.79-9.13 2.6-6.37 2.89-10.83 9.64-13.48 22.62a3.56 3.56 0 0 0-.49 2.63c-1.53 8.77-2.33 20.13-2.43 34.68-.28 39.71 17.51 52.21 24.31 61.12 7.11 8.35 9.13 26.25 24.05 27.37 5.96-1.57 17.9 23.73 17.96 23.75l.87 1.25c1.06.93 4.51 3.3 16.57 3.31.41 0 .81-.08 1.18-.21.38.13.76.21 1.18.21 12.05-.01 15.51-2.38 16.57-3.31l.87-1.25c.02-.29 12-25.32 17.95-23.75 14.93-1.12 16.95-19.01 24.06-27.37 5.33-6.99 17.38-16.17 22.24-38.87.13-.66.43-2.55.46-2.57 0 0 .63-3.26.58-3.33Zm-69.51 12.89c-1.88-1.41-6.74-4.67-13.22-4.76-.61 0-1.18.17-1.68.45a23.22 23.22 0 0 0-11.59 4.77c-3.37.57-16.43 2.62-27.83 2.61-2.87 0-5.62-.13-8.01-.44-7.9-.87-17.05-6.72-22.87-11v-1c0-3.78.22-15.31 2.28-23.78 2.38-10.11 11.39-24.9 11.37-24.92v-.02c.08-.11.12-.22.17-.33 4.33 1.4 7.19 4.87 8.73 7.17-8.59 2.89-15.42 9.42-15.46 21.93l-.01 1.36c.01 8.73 1.52 14.93 5.59 19.12 4.14 4.13 9.85 5.11 16.25 5.12 10.72-.02 24.82-2.73 43.13-3.11a3.46 3.46 0 0 0 2-.68c17.25.56 30.7 3.02 40.98 3.06 6.41 0 12.12-.99 16.26-5.14 4.08-4.2 5.57-10.42 5.59-19.17l-.02-1.35c-.03-12.45-6.75-19-15.25-21.93 1.6-1.9 3.91-3.96 6.93-5.04 2.02 3.43 8.76 15.36 10.78 23.94 2.05 8.47 2.28 20 2.27 23.78v1.29c0 .4.07.77.18 1.14-5.77 3.89-13.7 8.31-20.67 9.07-2.41.29-5.16.42-8.03.42-11.42 0-24.54-2.02-27.87-2.55Zm-91.89-20.14c-.22-2.83-.36-5.85-.38-9.11-.09-13.41.73-23.8 2.06-31.7 2.8.16 7.03.5 11.46 1.13-2.57 4.41-8.76 15.59-11.07 25.03a94.96 94.96 0 0 0-2.08 14.65Zm58.56-42.25a90.35 90.35 0 0 1 2.2-8.53c.3-.94.61-1.72.84-2.22a44.1 44.1 0 0 1 3.84-.14c4.73 0 10.63.38 10.64.38.9.05 4.08.43 5.17.37 0 0 5.92-.38 10.64-.38.63 0 1.26 0 1.85.02a3.46 3.46 0 0 0 2.51 1.16c1.32 3.88 3.31 13.84 4.29 18.85-8.43 1.15-15.87 2.75-19.5 2.71-1.17 0-4.03.86-4.72.86-3.67.06-11.22-1.57-19.75-2.73.41-2.34 1.12-6.33 2-10.35Zm17.75 20.16c1.15 0 4.03-.87 4.72-.87 7.63-.08 21.52-3.87 33.83-3.85 1.83.07 3.55.18 5.18.36a3.47 3.47 0 0 0 3.68.56c7.68 1.55 12.37 5.54 12.76 16.04l.01 1.23c-.86 15.99-3.38 16.4-14.77 17.23-9.53.03-24.11-2.69-42.98-3.12-.89-.02-1.7.29-2.33.83-17.79.57-31.65 3.05-40.81 3.02-11.39-.84-13.89-1.25-14.76-17.16l.01-1.23c.52-14.02 8.77-16.39 21.62-16.87 12.33-.04 26.19 3.75 33.83 3.84Zm79.04 12.98c-.02 3.26-.16 6.28-.38 9.11a93.6 93.6 0 0 0-2.08-14.65c-2.11-8.66-7.49-18.75-10.35-23.78 4.11-.6 8.08-.94 10.95-1.12 1.21 7.73 1.95 17.72 1.86 30.44Zm-3.2-37.47c-4.29.31-10.52.92-16.39 2.15-8.09 1.81-12.75 7.34-14.99 10.84a44.92 44.92 0 0 0-5.9-.29c-2.38 0-4.8.13-7.2.33-.25-1.43-.59-3.32-1.01-5.43l31.95-25.11c1.17.32 2.75.83 4.84 1.65 2.68.65 6.18 5.21 8.69 15.87Zm-20.93-20.71-26.37 20.71c-1-4.18-1.23-7.73-3.69-10.56l8.74-19.25.96-.01c2.28-.03 7.27.3 11.19 2.09 3.76 1.63 7.31 5.06 9.16 7.01Zm-74.07-16.15h.36c4.79-.91 7.03-4.52 18.8-4.72.41 0 .81-.08 1.18-.22.38.13.76.22 1.18.22 11.76.2 14.03 3.81 18.8 4.72h.36c1.9-.21 4.31 1.52 6.1 3.13l-9.33 20.51c-.84-.03-1.73-.04-2.71-.06-5.06 0-11.05.39-11.09.39-.74.05-3.34-.31-4.26-.36-.05 0-6.04-.39-11.11-.39-1.27.01-2.44.01-3.5.08l-9.66-21.26c1.57-1.2 3.38-2.2 4.88-2.04Zm-24.22 9.14c3.92-1.79 8.9-2.12 11.19-2.09.85 0 1.26.03 1.26.02l1.17-.53 9.11 20.07c-1.97 2.74-2.24 6.1-3.16 10.01L531.81 72c1.99-1.94 4.95-4.46 8.04-5.8Zm-21.4 11.86c3.79-1.48 5.95-1.97 6.93-2.12l32.08 25.2.19.12a430.3 430.3 0 0 0-1.21 6.57c-2.34-.2-4.7-.32-7.03-.33-1.94-.03-3.92.07-5.87.3-1.42-2.72-6.18-10.66-16.2-12.9a131.82 131.82 0 0 0-17.26-2.21c2.48-9.77 5.81-14.01 8.39-14.63Zm29.38 134.74c-6.5 1.12-10.61-13.22-18.41-24.56-5.64-7.48-14.37-13.76-19.26-29.63 6.24 4.55 15.77 10.36 25.42 11.69 2.8.35 5.81.49 8.9.49 5.98 0 12.23-.53 17.48-1.11-3.26 9.39-11.21 32.59-12.73 43.34-.45-.1-.93-.17-1.41-.22Zm49.31 26.9c-1.08.45-4.34 1.42-11.55 1.41-.42 0-.8.08-1.18.22a3.53 3.53 0 0 0-1.18-.22c-5.57 0-8.81-.57-10.47-1.05-.76-.22-1-.37-1.1-.42-1.85-4.16-7.07-17.16-15.58-23.44v-.16l-.01-.27c-.19-6.87 11.96-41.91 13.76-47.13 2.8-.42 4.56-.73 4.59-.74l1.72-.83c0-.06 4.77-3.96 9.46-3.83.41 0 .78-.08 1.13-.2 4.32.43 8.29 3.73 8.36 3.64l1.69.79s1.73.3 4.45.69c1.06 2.83 13.01 37.39 13.84 46.54-9.91 5.44-15.93 20.53-17.92 24.99Zm42.26-51.46c-7.42 10.8-11.51 24.27-17.49 24.58-1.61-11.03-9.74-34.66-12.87-43.65 5.27.59 11.61 1.09 17.64 1.09 3.08 0 6.09-.13 8.89-.47 8.22-1.09 16.38-5.36 22.48-9.33-4.98 14.51-13.25 20.59-18.65 27.77Z" class="cls-6"/><path d="M573.79 189.21h23.6a3.54 3.54 0 1 0 0-7.07h-23.6a3.53 3.53 0 1 0 0 7.07Zm25.96 9.44h-28.31c-1.96 0-3.56 1.59-3.56 3.54s1.6 3.53 3.56 3.53h28.31a3.53 3.53 0 1 0 0-7.07Zm0 14.16h-28.31c-1.96 0-3.56 1.58-3.56 3.54s1.6 3.54 3.56 3.54h28.31c1.96 0 3.53-1.58 3.53-3.54s-1.58-3.54-3.53-3.54Zm3.53-116.8a3.54 3.54 0 0 0-3.53-3.54h-28.31c-1.96 0-3.56 1.59-3.56 3.54s1.6 3.54 3.56 3.54h28.31a3.53 3.53 0 0 0 3.53-3.54Z" class="cls-6"/></svg>