<svg xmlns="http://www.w3.org/2000/svg" viewBox="0 0 894.13 610.93"><defs><style>.cls-1{fill:#a0616a}.cls-1,.cls-2,.cls-3,.cls-4,.cls-5,.cls-9{stroke-width:0}.cls-2{fill:#d0cde1}.cls-3{fill:#3f3d56}.cls-4{fill:#2f2e41}.cls-5{fill:#fbbebe}.cls-9{fill:#93bcd8}</style></defs><ellipse cx="447.07" cy="582.86" class="cls-2" rx="447.07" ry="28.06"/><path fill="#535461" stroke-width="0" d="M187.07 0h520v212.13h-520z"/><path d="m880.9 534.85 5.06 20.21-22.24 6.07-2.02-21.23 19.2-5.05zm-80.85 25.26v19.21l-22.24 4.04-4.04-10.11 8.09-17.18 18.19 4.04z" class="cls-5"/><path d="m844.52 350.91-3.03 27.29 2.02 52.55c1.64-.03 3 1.27 3.03 2.91v.13c0 3.03-3.03 2.02 0 4.04a51.5 51.5 0 0 0 5.05 3.03l32.34 98.04s-8.09 10.11-23.25 7.07l-3.03-10.11s-6.06-6.06-6.06-9.1 2.02-4.04 0-7.08S819.25 455 819.25 455l-14.15-25.27-4.04 34.36s8.09 43.46 6.06 63.67c-2.02 20.21-6.06 41.44-6.06 41.44l-24.26-4.04a16.9 16.9 0 0 0-3.03-9.1c-3.03-4.04-7.07-3.03-3.03-6.06 4.04-3.03 9.1 0 5.05-4.04-4.04-4.04-4.04-8.09-4.04-8.09v-3.03l-6.06-77.82-11.12-102.08 89.95-4.04Z" class="cls-4"/><path d="M775.79 112.39a27.3 27.3 0 1 1 0 54.58 27.3 27.3 0 0 1 0-54.58Z" class="cls-5"/><path d="m799.54 140.18 11.12 27.29-26.28 19.2-16.17-28.3 31.33-18.19z" class="cls-5"/><path d="m801.06 160.9 10.11-5.05 6.06 14.15s39.42 12.13 36.38 67.71c-3.03 55.59-10.11 76.81-10.11 76.81s17.18 36.38 7.08 40.43c-10.11 4.04-96.02 19.2-98.04 5.05-2.02-14.15 7.07-97.03 7.07-97.03s-3.03-59.63 22.23-71.76l-5.05-11.12 24.26-19.2Z" class="cls-9"/><path d="M745.47 356.97s-23.24 24.26-10.11 30.32c13.14 6.06 21.22-27.29 21.22-27.29l-11.12-3.03Z" class="cls-5"/><path d="m792.97 574.26 11.12-4.04s12.13 27.29 2.02 27.29h-26.28s-15.16-5.05-23.25-5.05-23.24-15.16-12.13-22.23c11.12-7.08 25.27-5.05 25.27-5.05l4.04-9.1 5.05 14.15s6.06 10.11 14.15 4.04Zm81.87-22.23s6.33-3.99 9.73-2.5c3.4 1.49 5.43 17.66 5.43 17.66s10.11 12.13-12.13 14.15c-22.23 2.02-27.29-2.02-29.31-8.08-2.02-6.06 2.02-12.13 2.02-12.13l6.06-2.02s7.08-5.05 5.05-7.08 0-6.06 0-6.06 7.07 14.15 13.14 6.06Zm-89.71-412.79c-.11-.88-.31-1.75-.59-2.6-1.47-3.08-7.19-2.18-8.21-5.43-.2-.64-.16-1.33-.35-1.97-.5-1.63-2.41-2.43-4.11-2.35-1.69.23-3.34.66-4.93 1.27-4 1.13-8.25.7-12.38.26a12.38 12.38 0 0 1-5.29-1.38c-1.56-.96-2.69-2.9-2.12-4.65.55-1.67 2.38-2.59 3.2-4.15 1.31-2.47-.29-5.67.77-8.25 1.7-4.15 8.15-3.32 11.42-6.39.79-.75 1.37-1.7 2.13-2.48 2.26-2.31 5.83-2.76 9.04-2.44 3.22.32 6.38 1.26 9.61 1.21 3.06-.05 6.28-.99 9.1.2a13.1 13.1 0 0 1 4.28 3.51l7.24 7.94a9.02 9.02 0 0 1 2.24 3.37c.44 1.52.04 3.16.22 4.73.42 3.59 3.78 6.29 4.23 9.87.09 1.11.04 2.23-.16 3.33l-1.02 7.48a5.52 5.52 0 0 1-.57 2.1c-.29.5-.74.9-1.07 1.38-.94 1.36-.85 3.15-1.32 4.73-.47 1.58-2.14 3.15-3.6 2.38-.95-.5-1.58-4.61-2.74-5.68-1.61-1.49-2.46-1.3-4.45-1.28-3.99.05-9.29.39-10.57-4.73Z" class="cls-4"/><path d="M789.94 198.29s30.32 12.13 21.22 39.42c-9.1 27.29-33.35 111.17-33.35 111.17l-14.15 7.08-4.04 11.12-19.2-7.07 3.03-15.16s1.01-1.01 1.01-5.05-4.04-5.05 1.01-5.05 5.05-5.05 5.05-5.05l18.19-113.2s0-19.2 21.22-18.19Z" class="cls-9"/><path stroke-width="0" d="M812.68 243.27 781.35 350.4l-13.14 13.14 7.58-13.65 36.89-106.62z" opacity=".1" style="isolation:isolate"/><path d="m60.87 179.12 31.76 5.3 10.58-50.29-25.58-10.59-16.76 55.58z" class="cls-4"/><path d="M104.54 114.28a27.36 27.36 0 1 1-.01 54.71 27.36 27.36 0 0 1 .01-54.71Z" class="cls-1"/><path d="M92.63 157.07s2.65 33.53-17.64 36.17c-20.29 2.65 17.64 62.64 27.35 61.76 9.71-.88 27.35-65.29 27.35-65.29s-22.94-15.88-15-30l-22.06-2.65ZM58.66 279.26s3.53 25.58 14.12 25.58-7.06-29.11-7.06-29.11l-7.06 3.53Zm154.4 25.58s26.47 22.06 22.94 29.11c-3.53 7.06-26.47-7.94-28.23-25.58l5.29-3.53Zm-159.69 84.7-16.76 62.64-18.53 75.87h17.65s6.18-23.82 17.64-36.17c0 0 11.47-19.41 11.47-32.64l27.35-64.4-38.82-5.29Zm72.34 3.53 5.29 59.11s-.88 42.35 0 52.05c.88 9.71 0 23.82 0 23.82h15.88s15-52.05 10.59-80.29l6.18-66.17-37.94 11.47Z" class="cls-1"/><path d="M104.54 230.74s-23.77-18.84-17.62-45.15c0 0-23.85 1.04-33.55 10.74-9.7 9.7 2.65 42.35 2.65 42.35s21.17 35.29 17.65 51.17c-3.53 15.88-41.47 99.7-29.11 104.99 12.35 5.29 87.34 23.82 125.28-7.06 0 0 9.71-87.34-29.11-115.58v-22.06s7.06-6.18 3.53-22.06c0 0 15-27.35 6.18-32.64-8.82-5.29-29.09-13.05-29.09-13.05s1.74 39.52-16.79 48.34Z" class="cls-4"/><path d="M58.66 196.33s-11.47-1.76-22.94 15-41.47 43.23-27.35 56.46c14.12 13.23 52.05 22.06 52.05 22.06l8.82-15.88-37.94-18.53 31.76-23.82-4.41-35.29Zm87.34 0s12.35 0 17.65 15c5.29 15 36.17 66.17 36.17 66.17l17.64 27.35-12.35 14.12-34.41-38.82-32.64-53.82 7.94-30ZM39.25 526.29h-24.7l-5.29 43.23s-14.12 22.94 7.06 20.29c21.17-2.65 14.12-26.47 14.12-26.47l5.29-8.82 1.76 18.53 1.76-.88v-20.29s9.7-8.82 0-25.59Zm112.05 0-22.94-1.76-4.41 49.41s-2.65 18.53 13.23 15.88c15.88-2.65 10.59-17.64 10.59-17.64v-27.35l3.53-18.53ZM84.69 113.84s-12.85 4.28-13.51 21.2c-.07 2.71.23 5.41.89 8.04.72 3.07 1.19 9.67-4.42 18.29a179.99 179.99 0 0 0-10.28 17.68l-.04.08 14.12 1.76 3-23.4a116.74 116.74 0 0 1 9.25-32.85l.1-.22s6.18 11.47 18.53 11.47l-4.41-4.41s19.41 7.94 26.47 7.94c0 0 5.29 3.53 0 8.82-5.29 5.29-15.88 17.65-9.71 27.35 6.18 9.7.88 12.35.88 12.35l9.71-5.29 4.41-2.65v3.53l22.94-2.65s6.18-.88-7.06-15.88c0 0-3.49-5.82-1.97-10.85a25.2 25.2 0 0 0 .96-11.85c-2.96-16.54-14.6-49.42-59.87-28.47Z" class="cls-4"/><path d="M586.14 609.21c-.12-.2-2.95-4.92-3.93-14.74-.9-9.01-.32-24.19 7.55-45.37 14.92-40.12-3.44-72.49-3.63-72.82l.91-.53a80 80 0 0 1 7.58 21.48 93.7 93.7 0 0 1-3.88 52.23c-14.89 40.05-3.82 59.01-3.71 59.2l-.89.55Zm-5.83-148.9a6.8 6.8 0 1 1 0 13.6 6.8 6.8 0 0 1 0-13.6Z" class="cls-3"/><circle cx="601.76" cy="492.24" r="6.8" class="cls-3" transform="rotate(-5 602.32 492.74)"/><path d="M587.11 502.18a6.8 6.8 0 1 1 0 13.6 6.8 6.8 0 0 1 0-13.6Zm17.79 14.13a6.8 6.8 0 1 1 0 13.6 6.8 6.8 0 0 1 0-13.6Z" class="cls-9"/><path d="M581.88 538.29a6.8 6.8 0 1 1 0 13.6 6.8 6.8 0 0 1 0-13.6Zm8.37 71.17s-6.8-16.75 13.61-29.3l-13.61 29.3Zm-8.37-.31s-3.1-17.81-27.06-17.66l27.06 17.66Z" class="cls-3"/><path d="M311.94 559.75c-.12-.2-2.95-4.92-3.93-14.74-.9-9.01-.32-24.19 7.55-45.37 14.92-40.12-3.44-72.5-3.62-72.82l.91-.53c3.53 6.76 6.09 14 7.58 21.48a93.7 93.7 0 0 1-3.88 52.23c-14.89 40.05-3.82 59.01-3.71 59.2l-.89.54Z" class="cls-2"/><path d="M306.11 410.86a6.8 6.8 0 1 1 0 13.6 6.8 6.8 0 0 1 0-13.6Zm21.45 25.12a6.8 6.8 0 1 1 0 13.6 6.8 6.8 0 0 1 0-13.6Z" class="cls-3"/><circle cx="312.91" cy="459.53" r="6.8" class="cls-9"/><path d="M330.7 466.86a6.8 6.8 0 1 1 0 13.6 6.8 6.8 0 0 1 0-13.6Z" class="cls-9"/><path d="M307.68 488.83a6.8 6.8 0 1 1 0 13.6 6.8 6.8 0 0 1 0-13.6Z" class="cls-3"/><path d="M316.05 560s-6.8-16.75 13.61-29.3L316.05 560Zm-8.36-.3s-3.1-17.81-27.06-17.66l27.06 17.66Z" class="cls-2"/><path fill="#fff" stroke-width="0" d="M553.16 89.49a52.8 52.8 0 0 0-62.85-51.8L381.17 66.2a52.78 52.78 0 0 0-40.2 51.22 52.59 52.59 0 0 0 12.67 34.26l-8.36 23.75 27.37-9.64a52.8 52.8 0 0 0 73.6-42.72l11.29-2.79a52.7 52.7 0 0 0 63.95 17.6l27.37 9.64-8.36-23.76a52.6 52.6 0 0 0 12.68-34.27Zm-134.31 32.73a4.4 4.4 0 0 1-4.4 4.39h-8.04a4.4 4.4 0 0 0-4.39 4.41v8.04c0 2.41-1.97 4.4-4.39 4.4h-7.24a4.41 4.41 0 0 1-4.39-4.4v-8.04a4.4 4.4 0 0 0-4.4-4.41h-8.03a4.4 4.4 0 0 1-4.41-4.39v-7.24c0-2.42 1.98-4.4 4.41-4.4h8.03a4.4 4.4 0 0 0 4.4-4.4v-8.03c0-2.42 1.98-4.4 4.39-4.4h7.24a4.4 4.4 0 0 1 4.39 4.4v8.03a4.4 4.4 0 0 0 4.39 4.4h8.04c2.42 0 4.4 1.99 4.4 4.4v7.24Zm62.47-23.41a8.72 8.72 0 0 1-9-8.36 8.7 8.7 0 0 1 17.35-.65 8.7 8.7 0 0 1-8.35 9.01Zm18.01-37.44a8.68 8.68 0 1 1-.01 0Zm2.08 56.09a8.7 8.7 0 0 1-9-8.35 8.7 8.7 0 0 1 8.35-9 8.7 8.7 0 0 1 .65 17.35Zm18.65-20.1a8.69 8.69 0 0 1-9-8.34 8.71 8.71 0 0 1 8.36-9 8.7 8.7 0 0 1 9 8.35 8.7 8.7 0 0 1-8.36 8.99Z"/></svg>