<svg xmlns="http://www.w3.org/2000/svg" viewBox="0 0 887.87 569.68"><defs><style>.cls-3,.cls-4,.cls-5,.cls-6,.cls-7{stroke-width:0}.cls-3{fill:#2f2e41}.cls-4{fill:#e6e6e6}.cls-5{fill:#fff}.cls-6{fill:#ffb9b9}.cls-7{fill:#93bcd8}</style></defs><path d="M276.41.35h611.46v391.61H276.41z" class="cls-4"/><path d="M293.9 49.46h576.49v319.32H293.9z" class="cls-5"/><path d="M276.15 0h611.46v25.98H276.15z" class="cls-7"/><path d="M295.45 8.47a4.81 4.81 0 1 1 0 9.62 4.81 4.81 0 0 1 0-9.62Zm18.28 0a4.81 4.81 0 1 1 0 9.62 4.81 4.81 0 0 1 0-9.62Zm18.27 0a4.81 4.81 0 1 1 0 9.62 4.81 4.81 0 0 1 0-9.62Z" class="cls-5"/><path fill="#ccc" stroke-width="0" d="M707.27 79.37H519.58a1.67 1.67 0 0 1 0-3.3h187.69a1.67 1.67 0 0 1 0 3.3ZM577.22 97.54H457.89a1.67 1.67 0 0 1 0-3.3h119.33a1.67 1.67 0 0 1 0 3.3Zm130.05.33H587.94a1.67 1.67 0 0 1 0-3.3h119.33a1.67 1.67 0 0 1 0 3.3Zm-129.76 17.84H458.18a1.67 1.67 0 0 1 0-3.3h119.33a1.67 1.67 0 0 1 0 3.3Zm54.45 0h-34.18a1.67 1.67 0 0 1 0-3.3h34.18a1.67 1.67 0 0 1 0 3.3ZM491.2 79.37h-34.18a1.67 1.67 0 0 1 0-3.3h34.18a1.67 1.67 0 0 1 0 3.3Zm85.58 208.31H457.45a1.67 1.67 0 0 1 0-3.3h119.33a1.67 1.67 0 0 1 0 3.3Zm-.58 36.33H456.87a1.67 1.67 0 0 1 0-3.3H576.2a1.67 1.67 0 0 1 0 3.3Zm.29 18.17H457.16a1.67 1.67 0 0 1 0-3.3h119.33a1.67 1.67 0 0 1 0 3.3Zm50.98-17.84h-34.18a1.67 1.67 0 0 1 0-3.3h34.18a1.67 1.67 0 0 1 0 3.3Zm0 17.84h-34.18a1.67 1.67 0 0 1 0-3.3h34.18a1.67 1.67 0 0 1 0 3.3Zm57.35-17.84h-34.18a1.67 1.67 0 0 1 0-3.3h34.18a1.67 1.67 0 0 1 0 3.3Zm22.59-18.49H519.72a1.67 1.67 0 0 1 0-3.3h187.69a1.67 1.67 0 0 1 0 3.3Zm-216.07 0h-34.18a1.67 1.67 0 0 1 0-3.3h34.18a1.67 1.67 0 0 1 0 3.3Z"/><path d="M470.6 546.04c14.42 19.31 44.35 21.34 44.35 21.34s6.55-29.28-7.87-48.59c-14.42-19.31-44.35-21.34-44.35-21.34s-6.55 29.28 7.87 48.59Z" class="cls-4"/><path d="M544.06 553.29c-9.51 12.74-29.27 14.08-29.27 14.08s-4.32-19.32 5.19-32.06c9.52-12.74 29.27-14.08 29.27-14.08s4.32 19.32-5.19 32.06Z" class="cls-4"/><path d="M149.83 460.99v50.13H135.5l-9.54-52.51 23.87 2.38zm-113.39 0v50.13H22.12l-9.54-52.51 23.86 2.38zM112 91.48s-23.01-16.54-25.89-8.63c-2.88 7.91 17.26 22.29 17.26 22.29L112 91.48Z" class="cls-6"/><path d="M30.37 112.7c0 28.6 12.31 29.49 32.37 29.49s40.27-.89 40.27-29.49-16.26-51.78-36.32-51.78S30.37 84.1 30.37 112.7Z" class="cls-3"/><path d="M79.63 112.34s-2.88 21.58 10.79 23.01c13.66 1.44-44.59 5.75-44.59 5.75s15.1-13.66 7.19-24.45c-7.91-10.79 26.61-4.31 26.61-4.31Z" class="cls-6"/><path d="m152.27 497.82 5.03 42.43s25.17 30.92 9.35 28.77c-15.82-2.16-25.89.46-25.89-2.42s-.37-13.16-2.53-13.16-3.94 16.23-3.94 16.23-6.47-.49-7.19-1.21c-.72-.72-1.44-41.88-1.44-41.88s-2.16-12.23 2.16-17.98c4.31-5.75 3.6-10.79 3.6-10.79h20.86Zm-114.57-.46 5.03 42.43s25.17 30.93 9.35 28.77c-15.82-2.16-25.89.46-25.89-2.42s-.37-13.16-2.53-13.16-3.94 16.23-3.94 16.23-6.47-.49-7.19-1.21c-.72-.72-1.44-41.88-1.44-41.88s-2.16-12.23 2.16-17.98c4.31-5.75 3.6-10.79 3.6-10.79h20.86Zm77.17-251.97s23.01 65.45 24.45 79.83c1.44 14.38-1.44 63.29-1.44 63.29s20.86 84.5 16.54 85.22c-4.31.72-28.35 4.13-29.06.53-.72-3.6-3.28-9.16-2.56-11.32.72-2.16-2.16-10.07-2.16-14.38s-10.08-26.96-9.37-30.56c.72-3.6-12.23-56.82-14.38-61.13-2.16-4.32-7.91-34.52-7.91-34.52s-32.36 88.46-33.08 90.62c-.72 2.16-3.6 5.75-2.16 6.47 1.44.72-2.16 5.75-2.16 5.75s-7.45 29.84-7.45 31.28 1.44 17.72-1.44 18.44c-2.88.72-32.26.67-33.7-4.36-1.44-5.03 15.26-63.33 15.26-63.33s12.23-36.68 8.63-46.03c-3.6-9.35 3.6-65.45 6.47-69.76 2.88-4.31 3.6-30.21 3.6-30.21l71.92-15.82Z" class="cls-3"/><path d="M67.05 78.18a23 23 0 1 1 0 46.02 23 23 0 0 1 0-46.02Z" class="cls-6"/><path d="M79.63 130.32s-25.89.72-27.33-1.44c-1.44-2.16-37.4 5.03-37.4 19.42s20.86 70.48 20.86 70.48 7.91 40.27 5.75 44.59c-2.16 4.31 79.83-9.35 77.67-16.54-2.16-7.19-14.38-23.01 1.44-36.68 15.82-13.66 22.29-28.05 22.29-28.05l-18.7-49.62s-18.7-2.88-23.01 0c-4.32 2.88-21.58-2.16-21.58-2.16Z" class="cls-7"/><path d="m137.89 185.7 5.03-3.6s46.75-48.9 34.52-58.25c-12.23-9.35-30.21-17.98-38.84-18.7-8.63-.72-15.82-7.19-15.82-7.19s-9.35-16.54-16.54-5.75-15.1 14.38-5.03 17.98c10.07 3.6 16.54 2.16 21.58 5.75 5.03 3.6 24.45 9.35 15.82 11.51a77.58 77.58 0 0 0-14.38 5.03l-9.35 16.54 23.01 36.68Z" class="cls-7"/><path d="M56.62 307.24s18.7 27.33 5.03 25.89c-13.66-1.44-20.14-20.14-20.14-20.14l15.1-5.75Z" class="cls-6"/><path d="m19.94 144.7-5.03 3.6s-16.54 90.62 0 114.35c16.54 23.73 17.98 22.29 17.98 22.29s2.88-2.16 4.31 12.23c1.44 14.38-.72 20.14 3.6 20.14s23.73-4.31 22.29-7.91c-1.44-3.6-10.79-24.45-11.51-29.49-.72-5.03-4.31-16.54-5.75-23.01-1.44-6.47 6.47-10.07 2.88-23.73-3.6-13.67-8.63-38.12-8.63-43.15s-20.14-45.31-20.14-45.31Z" class="cls-7"/><path d="M44.75 80.69c0 7.75 10.63 14.02 23.73 14.02s25.17 4.15 25.17-3.6-12.06-24.45-25.17-24.45-23.73 6.28-23.73 14.02Zm58.04 36.86s.97 26.07-24.94 24.63 3.5-22.29 3.5-22.29l21.44-2.35Z" class="cls-3"/><path fill="#3f3d56" stroke-width="0" d="M0 567.38h702.91v2.24H0z"/><path d="m525.3 176.96 1.17 6.51.25-6.44a4.51 4.51 0 0 1-1.42-.07Z" class="cls-3"/><path d="M553.67 220.59c-2.4-10.25-2.41-9.35-4.86-19.55-.2-.82-9.18-6.91-9.38-7.72-.13-.55 5-8.13 4.87-8.68-2.28-9.39-3.5-17.59-6.1-26.92a4.95 4.95 0 0 0-4.84-3.66h-5.72l-.6 15.03a4.03 4.03 0 0 1-.31 7.96l-.25 6.44-1.17-6.51a4.03 4.03 0 0 1-1.31-7.32l-2.79-15.6h-5.8a4.96 4.96 0 0 0-4.74 3.34l-1.18 3.32 3.67 41.52 8.62 27.15c2.3 7.24 8.83 12.14 16.04 12.15.71 0-7.95-32.75-7.23-32.85.71-.1 10.82 31.87 11.54 31.68 8.78-2.42 13.63-10.9 11.56-19.77Zm-36.01-34.16a4.05 4.05 0 0 1-.3-8.08 4.05 4.05 0 0 1 .3 8.08Zm9.36 8.69a4.05 4.05 0 1 1-.28-8.1 4.05 4.05 0 0 1 .28 8.1Zm8.69-9.37a4.04 4.04 0 1 1-.3-8.08 4.04 4.04 0 0 1 .3 8.08Zm-71.78-28.37a4.96 4.96 0 0 0-4.74-3.34h-17.97a4.96 4.96 0 0 0-4.84 3.66c-1.2 4.31-2.35 8.62-3.47 12.95-.14.51 3.95-.13 3.82.39-4.13 16.06-10.85 33.36-14.64 49.55-2.07 8.86 1.61 17.93 10.39 20.35 8.78 2.42 17.59-2.89 20.35-11.56l8.62-27.15 3.67-41.52-1.18-3.32Zm-3.07 26.03c0 1.12-.92 2.04-2.05 2.04h-3.75c-1.12 0-2.04.92-2.04 2.05v3.75c0 1.12-.92 2.05-2.05 2.05h-3.37a2.06 2.06 0 0 1-2.05-2.05v-3.75c0-1.13-.92-2.05-2.05-2.05h-3.74a2.05 2.05 0 0 1-2.05-2.04v-3.38c0-1.12.92-2.05 2.05-2.05h3.74c1.13 0 2.05-.92 2.05-2.05v-3.74c0-1.13.92-2.05 2.05-2.05h3.37c1.13 0 2.05.92 2.05 2.05v3.74c0 1.13.92 2.05 2.04 2.05h3.75c1.13 0 2.05.92 2.05 2.05v3.38Zm46.66-22.71h-40.74l-.92 10.55 31.74.2-.02 1.46h-31.86l-1.37 15.73 33.4.2-.03 1.51-33.53.15-1.02 11.72h48.07l-3.71-41.52Zm-22.77 19.12-5 5a2 2 0 0 1-2.82 0 1.98 1.98 0 0 1 0-2.81l5-5a2.01 2.01 0 0 1 2.82 0c.77.78.77 2.05 0 2.82Zm11.33 0-5 5c-.77.77-2.04.77-2.82 0a2 2 0 0 1 0-2.81l5-5a2 2 0 1 1 2.82 2.82Zm98.71-21.43h-3.7v-4.23h11.74v4.23h-3.17v24.33l-5.5 5.82h-10.15l-5.5-5.82v-9.31h4.23v7.14l3.33 3.44h5.98l2.75-2.8V158.4Zm36.59 8.25h-4.39v-4.65l-3.17-3.28h-8.09l-2.75 2.8v5.18l2.59 2.64h11l5.34 5.61v7.77l-5.5 5.82h-13.33l-5.5-5.82v-6.66h4.39v4.65l3.23 3.28h9.15l2.69-2.8v-4.71l-2.54-2.59h-11l-5.4-5.66v-8.25l5.5-5.82h12.27l5.5 5.82v6.66Zm20.15-17.77v35.43h7.93v4.23h-20.73v-4.23h7.93V154l-8.62 4.28-2.06-4.12 10.68-5.29h4.87Zm20.15 22.05v-4.23h8.35l2.54-2.59v-7.88l-2.75-2.8h-8.09l-3.17 3.28v4.65h-4.39v-6.66l5.5-5.82h12.27l5.5 5.82v10.95l-2.7 2.8 3.7 3.86v10.42l-5.5 5.82h-13.33l-5.5-5.82v-6.66h4.39v4.65l3.22 3.28h9.15l2.7-2.8v-7.35l-2.85-2.91h-9.04Zm51.13 17.61H711.6v-4.23h2.7l-7.77-10.84h-5.24v10.84h3.7v4.23h-12.27v-4.23h3.7v-25.91h-3.7v-4.23h12.27v4.23h-3.7v10.84h4.65l7.83-10.84h-2.7v-4.23h11.21v4.23h-3.07l-9.04 12.59 9.57 13.33h3.07v4.23ZM602.3 221.38H595v-4.23h11.53v14.54l-5.5 5.82h-13.85l-5.5-5.82v-28.03l5.5-5.82h13.85l5.5 5.82v6.66h-4.23v-4.5l-3.33-3.44h-9.68l-2.75 2.8v24.96l2.7 2.8h9.68l3.38-3.44v-8.14Zm28.55 16.13v-4.23h3.49l-2.28-6.56h-13.22l-2.27 6.56h3.54v4.23H608.9v-4.23h2.8l8.94-25.91h-2.22v-4.23h14.12v4.23h-2.27l8.94 25.91h2.85v4.23h-11.21Zm-5.39-29.98-5.18 14.97h10.36l-5.18-14.97Zm28.08 25.75h3.7v4.23h-12.27v-4.23h3.7v-25.91h-3.7v-4.23h10.79l10 25.01 9.99-25.01h10.79v4.23h-3.7v25.91h3.7v4.23h-12.27v-4.23h3.7v-24.17l-9.89 24.17h-4.65l-9.89-24.17v24.17Zm39.34-30.14h25.17v10.36h-4.23v-6.14h-12.37v10.84h12.37v4.23h-12.37v10.84h12.37v-6.13h4.23v10.36h-25.17v-4.23h3.7v-25.91h-3.7v-4.23Zm53.73 12.48h-4.39v-4.65l-3.17-3.28h-8.09l-2.75 2.8v5.18l2.59 2.64h11l5.34 5.61v7.77l-5.5 5.82h-13.33l-5.5-5.82v-6.66h4.39v4.66l3.23 3.28h9.15l2.7-2.8v-4.71l-2.54-2.59h-11l-5.4-5.66v-8.25l5.5-5.82h12.27l5.5 5.82v6.66Z" class="cls-3"/></svg>